<?xml version="1.0" encoding="utf-8"?><svg width="113" height="60" viewBox="0 0 113 60" xmlns="http://www.w3.org/2000/svg" xmlns:xlink="http://www.w3.org/1999/xlink"><svg width="16" height="21" x="86" y="27" viewBox="0 0 16 21" id="icon-clock" xmlns="http://www.w3.org/2000/svg"><path fill="#FFF" fill-rule="evenodd" d="M16 12.991a8 8 0 1 1-16 0 8 8 0 0 1 16 0zm-8.027 1.183a.97.97 0 0 0 .688-.285l4.227-4.228a.972.972 0 1 0-1.375-1.376l-4.228 4.228a.973.973 0 0 0 .688 1.66zM10.56 3H5.44C4.645 3 4 2.329 4 1.5S4.645 0 5.44 0h5.12C11.355 0 12 .671 12 1.5S11.355 3 10.56 3z"/></svg><svg width="26" height="27" x="60" viewBox="0 0 26 27" id="icon-pause"><g fill="none" fill-rule="evenodd" transform="translate(.5 1)"><circle cx="12.5" cy="12.5" r="12.5" stroke="#94A3B7"/><path fill="#94A3B7" d="M9.5 7h2v11h-2V7zm4 0h2v11h-2V7z"/></g></svg><svg width="27" height="27" x="86" viewBox="0 0 27 27" id="icon-play"><g fill="none" fill-rule="evenodd" transform="translate(1 1)"><circle cx="12.5" cy="12.5" r="12.5" stroke="#94A3B7"/><path fill="#94A3B7" d="M16.301 13.324l-5.234 3.599a1 1 0 0 1-1.567-.824V8.901a1 1 0 0 1 1.567-.824l5.234 3.599a1 1 0 0 1 0 1.648z"/></g></svg><svg width="60" height="60" viewBox="0 0 60 60" id="icon-play-big" xmlns="http://www.w3.org/2000/svg"><g fill="none" fill-rule="evenodd"><circle cx="30" cy="30" r="30" fill="#4A90E2"/><path fill="#FFF" d="M39.123 31.978L26.56 40.615a2.4 2.4 0 0 1-3.76-1.977V21.362a2.4 2.4 0 0 1 3.76-1.977l12.563 8.637a2.4 2.4 0 0 1 0 3.956z"/></g></svg></svg>