<svg xmlns="http://www.w3.org/2000/svg" width="156" height="22" viewBox="0 0 156 22">
    <g fill="none" fill-rule="evenodd">
        <path fill="#344861" d="M7.806 21.667a8.333 8.333 0 0 1-2.483-.368 7.168 7.168 0 0 1-2.173-1.103A7.627 7.627 0 0 1 1.428 18.4C.94 17.693.554 16.868.271 15.925l3.584-1.414c.264 1.018.725 1.862 1.383 2.531.659.67 1.524 1.004 2.597 1.004.395 0 .776-.052 1.143-.155.366-.104.696-.255.987-.453.292-.198.522-.448.692-.75.169-.301.254-.65.254-1.046a2.52 2.52 0 0 0-.198-1.018c-.132-.302-.353-.585-.663-.849-.31-.264-.715-.518-1.214-.764-.498-.245-1.114-.5-1.848-.763l-1.242-.453a9.535 9.535 0 0 1-1.65-.764 7.235 7.235 0 0 1-1.51-1.16A5.72 5.72 0 0 1 1.47 8.275c-.292-.613-.438-1.306-.438-2.08a5.337 5.337 0 0 1 1.792-4.03A6.216 6.216 0 0 1 4.885.948c.8-.293 1.689-.439 2.667-.439 1.016 0 1.896.137 2.639.41.743.274 1.373.623 1.89 1.047.518.424.937.89 1.257 1.4.32.51.555.99.705 1.443l-3.358 1.414c-.188-.566-.532-1.075-1.03-1.528-.499-.452-1.18-.678-2.046-.678-.828 0-1.515.193-2.06.58-.546.386-.819.89-.819 1.513 0 .603.264 1.117.79 1.541.527.425 1.364.835 2.512 1.23l1.27.425c.81.283 1.548.608 2.215.976a6.943 6.943 0 0 1 1.722 1.315c.48.51.847 1.09 1.1 1.74.255.65.382 1.4.382 2.248 0 1.056-.212 1.966-.635 2.73a5.833 5.833 0 0 1-1.623 1.881 7.05 7.05 0 0 1-2.23 1.103 8.524 8.524 0 0 1-2.427.368zm18.7-2.263h-.226a4.69 4.69 0 0 1-1.75 1.655c-.734.405-1.571.608-2.512.608-1.75 0-3.052-.538-3.908-1.612-.856-1.075-1.285-2.508-1.285-4.3v-8.4h3.697v7.948c0 .999.222 1.74.664 2.22.442.48 1.086.721 1.933.721.508 0 .955-.108 1.34-.325.386-.217.715-.51.988-.877.273-.368.48-.801.62-1.301.142-.5.213-1.032.213-1.598V7.354h3.697v13.86h-3.472v-1.81zm16.751.141h-.226c-.338.585-.865 1.085-1.58 1.5-.715.414-1.6.622-2.653.622a5.976 5.976 0 0 1-2.526-.552 6.753 6.753 0 0 1-2.116-1.527 7.256 7.256 0 0 1-1.454-2.334c-.357-.905-.536-1.895-.536-2.97 0-1.075.179-2.065.536-2.97a7.256 7.256 0 0 1 1.454-2.333 6.753 6.753 0 0 1 2.116-1.528 5.976 5.976 0 0 1 2.526-.551c1.054 0 1.938.207 2.653.622.715.415 1.242.915 1.58 1.5V.961h3.697v20.252h-3.47v-1.669zm-3.697-1.3c.49 0 .955-.09 1.397-.27a3.49 3.49 0 0 0 1.171-.777c.339-.34.612-.755.819-1.245.207-.49.31-1.046.31-1.669 0-.622-.103-1.178-.31-1.669a3.867 3.867 0 0 0-.819-1.244 3.49 3.49 0 0 0-1.171-.778 3.685 3.685 0 0 0-1.397-.269c-.49 0-.955.095-1.397.283a3.677 3.677 0 0 0-1.171.792c-.339.34-.611.754-.818 1.245a4.18 4.18 0 0 0-.31 1.64c0 .604.103 1.15.31 1.64.207.491.48.906.818 1.245.339.34.729.604 1.171.792.442.189.908.283 1.397.283zM56.255 6.901c1.073 0 2.056.184 2.95.551a6.98 6.98 0 0 1 2.314 1.528 6.965 6.965 0 0 1 1.524 2.333c.366.905.55 1.895.55 2.97 0 1.075-.184 2.065-.55 2.97a6.965 6.965 0 0 1-1.524 2.334 6.98 6.98 0 0 1-2.315 1.527c-.893.368-1.876.552-2.949.552-1.072 0-2.055-.184-2.949-.552a6.98 6.98 0 0 1-2.314-1.527 6.965 6.965 0 0 1-1.524-2.334c-.367-.905-.55-1.895-.55-2.97 0-1.075.183-2.065.55-2.97a6.965 6.965 0 0 1 1.524-2.333 6.98 6.98 0 0 1 2.314-1.528c.894-.367 1.877-.551 2.95-.551zm0 11.342c.47 0 .927-.09 1.37-.268a3.49 3.49 0 0 0 1.17-.778c.339-.34.607-.755.805-1.245.197-.49.296-1.046.296-1.669 0-.622-.099-1.178-.296-1.669a3.688 3.688 0 0 0-.805-1.244 3.49 3.49 0 0 0-1.17-.778 3.613 3.613 0 0 0-1.37-.269 3.528 3.528 0 0 0-2.54 1.047c-.338.34-.606.754-.804 1.244-.197.49-.296 1.047-.296 1.67 0 .622.099 1.178.296 1.668.198.49.466.905.804 1.245a3.528 3.528 0 0 0 2.54 1.046zM65.782.962h3.697v11.031h.17l4.628-4.639h4.572v.227l-5.136 5.006 5.56 8.401v.226h-4.375l-3.782-6.081-1.637 1.612v4.47h-3.697V.961zm24.485 18.442h-.226a4.69 4.69 0 0 1-1.75 1.655c-.733.405-1.57.608-2.511.608-1.75 0-3.053-.538-3.909-1.612-.856-1.075-1.284-2.508-1.284-4.3v-8.4h3.697v7.948c0 .999.221 1.74.663 2.22.442.48 1.087.721 1.933.721.508 0 .955-.108 1.34-.325.386-.217.716-.51.988-.877.273-.368.48-.801.621-1.301.141-.5.212-1.032.212-1.598V7.354h3.697v13.86h-3.471v-1.81z"/>
        <path fill="#4A90E2" d="M99.088 21.384c-.677 0-1.255-.24-1.735-.721-.48-.481-.72-1.061-.72-1.74s.24-1.254.72-1.725a2.386 2.386 0 0 1 1.735-.707 2.34 2.34 0 0 1 1.722.707 2.35 2.35 0 0 1 .705 1.725c0 .679-.235 1.259-.705 1.74-.47.48-1.044.721-1.722.721z"/>
        <path fill="#344861" d="M117.533 17.679a7.73 7.73 0 0 1-2.525 2.87c-1.082.745-2.432 1.118-4.05 1.118-1.073 0-2.056-.184-2.95-.552a6.873 6.873 0 0 1-2.313-1.541 7.158 7.158 0 0 1-1.524-2.334c-.367-.896-.55-1.88-.55-2.956 0-1.075.183-2.065.55-2.97a6.965 6.965 0 0 1 1.524-2.333 6.98 6.98 0 0 1 2.314-1.528c.893-.367 1.876-.551 2.949-.551 1.599 0 2.944.367 4.035 1.103 1.092.735 1.891 1.688 2.4 2.857l-3.387 1.414c-.32-.641-.73-1.127-1.228-1.457-.498-.33-1.124-.495-1.877-.495-.489 0-.95.095-1.382.283a3.558 3.558 0 0 0-1.143.792c-.33.34-.588.754-.776 1.245a4.547 4.547 0 0 0-.283 1.64c0 .604.094 1.15.283 1.64.188.491.446.906.776 1.245.329.34.71.604 1.143.792.432.189.893.283 1.382.283.772 0 1.426-.174 1.962-.523.536-.349.964-.853 1.284-1.513l3.386 1.47zM126.157 6.902c1.073 0 2.056.184 2.95.551a6.98 6.98 0 0 1 2.314 1.528 6.965 6.965 0 0 1 1.524 2.333c.366.905.55 1.895.55 2.97 0 1.075-.184 2.065-.55 2.97a6.965 6.965 0 0 1-1.524 2.334 6.98 6.98 0 0 1-2.315 1.527c-.893.368-1.876.552-2.949.552-1.072 0-2.055-.184-2.949-.552a6.98 6.98 0 0 1-2.314-1.527 6.965 6.965 0 0 1-1.524-2.334c-.367-.905-.55-1.895-.55-2.97 0-1.075.183-2.065.55-2.97a6.965 6.965 0 0 1 1.524-2.333 6.98 6.98 0 0 1 2.314-1.528c.894-.367 1.877-.551 2.95-.551zm0 11.342c.47 0 .927-.09 1.37-.268a3.49 3.49 0 0 0 1.17-.778c.339-.34.607-.755.805-1.245.197-.49.296-1.046.296-1.669 0-.622-.099-1.178-.296-1.669a3.688 3.688 0 0 0-.805-1.244 3.49 3.49 0 0 0-1.17-.778 3.613 3.613 0 0 0-1.37-.269 3.528 3.528 0 0 0-2.54 1.047c-.338.34-.606.754-.804 1.244-.197.49-.296 1.047-.296 1.67 0 .622.099 1.178.296 1.668.198.49.466.905.804 1.245a3.528 3.528 0 0 0 2.54 1.046zM135.543 7.921h3.178v1.657h.207a4.443 4.443 0 0 1 1.614-1.501c.68-.38 1.434-.57 2.26-.57.965 0 1.775.224 2.43.673.654.449 1.119 1.001 1.394 1.657.396-.638.956-1.186 1.68-1.644.723-.457 1.601-.686 2.635-.686.775 0 1.446.125 2.015.375.568.25 1.037.6 1.408 1.05.37.448.65.987.84 1.617.189.63.283 1.317.283 2.059v8.001h-3.384v-7.38c0-1.726-.706-2.589-2.118-2.589-.448 0-.844.1-1.189.298a2.651 2.651 0 0 0-.865.803 3.964 3.964 0 0 0-.543 1.204c-.129.466-.193.966-.193 1.501v6.163h-3.385v-7.38c0-1.726-.74-2.589-2.221-2.589-.431 0-.81.1-1.137.298a2.619 2.619 0 0 0-.827.803 3.938 3.938 0 0 0-.516 1.204 5.98 5.98 0 0 0-.181 1.501v6.163h-3.385V7.921z"/>
    </g>
</svg>
