<?xml version="1.0" encoding="utf-8"?><svg width="142" height="140" viewBox="0 0 142 140" xmlns="http://www.w3.org/2000/svg" xmlns:xlink="http://www.w3.org/1999/xlink"><svg width="22" height="15" viewBox="0 0 22 15" id="flags--flag-ar" x="120" y="60"><path d="M21.241 15a.754.754 0 0 0 .759-.75V.75c0-.414-.34-.75-.759-.75H.76A.754.754 0 0 0 0 .75v13.5c0 .414.34.75.759.75H21.24z" fill="#4A8656"/><path d="M11.04 11.064a3.747 3.747 0 0 1-3.744-3.75 3.747 3.747 0 0 1 3.744-3.75 3.747 3.747 0 0 1 3.745 3.75 3.747 3.747 0 0 1-3.745 3.75zm0-.39a3.357 3.357 0 0 0 3.355-3.36 3.357 3.357 0 0 0-3.355-3.36 3.357 3.357 0 0 0-3.354 3.36 3.357 3.357 0 0 0 3.354 3.36z" fill="#F7C608"/><g fill="#FFF"><path d="M16.962 7.547a.029.029 0 0 0-.026-.005l-.029.008-.004.001c-.022.007-.04.012-.06.02a1.448 1.448 0 0 0-.819.839c.046-.255.057-.355.065-.64v-.036c0-.033 0-.064.007-.093a.494.494 0 0 1 .064-.13.439.439 0 0 0 .229-.11.732.732 0 0 0 .17-.224c.156-.312.234-.658.232-1.026a.922.922 0 0 0-.009-.108 2.089 2.089 0 0 1-.006-.052.029.029 0 0 0-.043-.021.502.502 0 0 1-.034.02 1.536 1.536 0 0 0-.628 1.116l-.007-.093L16.063 7l-.029-.375a.656.656 0 0 0-.014-.092c-.011-.058-.022-.112-.005-.169l.011-.038a.354.354 0 0 1 .108-.135l.002-.002a.723.723 0 0 0 .201-.33c.066-.21.061-.428.057-.589v-.004a1.853 1.853 0 0 0-.077-.537 1.022 1.022 0 0 0-.034-.092.028.028 0 0 0-.022-.018h-.005a.028.028 0 0 0-.022.01l-.047.058a1.43 1.43 0 0 0-.33.96c0 .063.006.129.014.196a5.587 5.587 0 0 0-.201-.576.042.042 0 0 1-.003-.014V5.23c-.001-.037-.002-.074 0-.112 0-.006.004-.017.012-.028l.038-.047c.024-.027.048-.054.067-.086a.72.72 0 0 0 .09-.38c0-.185-.028-.38-.09-.612a1.57 1.57 0 0 0-.18-.442.436.436 0 0 0-.033-.044.03.03 0 0 0-.025-.011.029.029 0 0 0-.023.014c-.12.216-.18.447-.183.706-.002.216.032.402.074.549a5.463 5.463 0 0 0-.357-.567l-.003-.004c-.003-.004-.004-.006-.004-.004a3.428 3.428 0 0 1-.018-.146l.007-.014a.996.996 0 0 1 .028-.044.5.5 0 0 0 .054-.097.72.72 0 0 0 .027-.369 1.648 1.648 0 0 0-.503-.94l-.007-.007-.035-.032a.029.029 0 0 0-.028-.006.029.029 0 0 0-.02.02l-.004.023a1.906 1.906 0 0 0-.001.662c.036.228.109.424.22.594a4.547 4.547 0 0 0-.502-.513.476.476 0 0 0-.086-.33.873.873 0 0 0-.387-.318c-.098-.043-.199-.08-.298-.117l-.144-.054c-.049-.02-.07-.023-.081-.012-.015.013-.011.025-.005.046l.002.007c.06.202.14.36.243.487.19.232.413.35.68.36a.04.04 0 0 1 .02.006c.037.028.065.05.09.073.077.07.153.146.228.225a.68.68 0 0 0-.4-.092 2.467 2.467 0 0 0-.246.028h-.003l-.07.011a3.972 3.972 0 0 0-.15.024c-.019.003-.063.013-.073.035a.024.024 0 0 0 0 .023.975.975 0 0 0 .474.363.756.756 0 0 0 .597-.02.202.202 0 0 1 .098-.022c.028 0 .05.005.057.006.01.002.025.008.028.012.112.146.217.303.316.467a.705.705 0 0 0-.34-.171 2.111 2.111 0 0 0-.392-.044l-.044-.003-.122-.007-.07-.004a.028.028 0 0 0-.022.012.028.028 0 0 0-.004.027.245.245 0 0 0 .01.025c.136.227.295.383.487.48a.75.75 0 0 0 .529.077.289.289 0 0 1 .066-.007c.073 0 .124.022.134.042.095.194.179.396.251.601a.81.81 0 0 0-.317-.253c-.133-.063-.273-.12-.41-.177l-.176-.074a.028.028 0 0 0-.04.026c0 .019.195.56.479.773.115.087.258.177.437.18.054.002.11.01.152.057a.056.056 0 0 0 .024.017c.014.005.018.013.025.043.059.244.101.496.127.751a1.117 1.117 0 0 0-.364-.521c-.085-.073-.175-.144-.261-.212l-.004-.004c-.04-.03-.08-.062-.118-.093a1.067 1.067 0 0 1-.026-.022L15.145 6a.029.029 0 0 0-.047.024l.003.049v.007c.003.032.004.063.008.093.03.292.117.537.266.747.092.13.224.288.43.363a.27.27 0 0 1 .125.096c.037.047.043.09.043.143-.004.225-.02.449-.048.667A.915.915 0 0 0 15.883 8a1.448 1.448 0 0 0-.213-.4 26.259 26.259 0 0 0-.258-.348l-.006-.007-.1-.134a.038.038 0 0 0-.02-.014.029.029 0 0 0-.04.017l-.002.003a1.618 1.618 0 0 0 .107.972c.066.145.153.309.307.426a.48.48 0 0 1 .156.213c.006.018.006.026.005.029-.065.269-.15.529-.253.775a.98.98 0 0 0-.006-.407 3.564 3.564 0 0 0-.183-.56l-.02-.05-.094-.237a.03.03 0 0 0-.028-.018c-.01 0-.02.006-.024.016l-.01.02c-.005.008-.01.016-.013.024-.133.3-.178.607-.134.914.032.219.086.376.175.508.046.069.09.145.098.24a.081.081 0 0 1-.01.054 4.306 4.306 0 0 1-.375.554l.001-.002c.1-.182.102-.377.092-.545-.008-.144-.025-.287-.04-.426l-.002-.008a15.783 15.783 0 0 1-.03-.262l-.004-.043a.028.028 0 0 0-.016-.023c-.015-.008-.04.005-.068.037a1.498 1.498 0 0 0-.347.747c-.044.283-.02.526.072.741a.067.067 0 0 1 .003.022l-.005.124a.042.042 0 0 1-.01.022 3.327 3.327 0 0 1-.617.469.819.819 0 0 0 .23-.376 3.62 3.62 0 0 0 .11-.53l.002-.016.03-.186.01-.07a.028.028 0 0 0-.01-.028.029.029 0 0 0-.028-.004l-.01.005a1.23 1.23 0 0 0-.686 1.174.56.56 0 0 1-.02.208.029.029 0 0 1-.011.014c-.2.084-.389.145-.58.187a.028.028 0 0 0-.015.046c.02.025.039.051.053.079a.03.03 0 0 0 .032.014c.155-.035.307-.081.45-.136a.054.054 0 0 1 .029-.006c.031.005.065.011.103.02l.014.006c.081.162.222.266.429.316a1.242 1.242 0 0 0 .3.031c.08 0 .138-.005.139-.005.18-.02.333-.06.469-.123a.437.437 0 0 0 .168-.123.029.029 0 0 0-.004-.039 1.464 1.464 0 0 0-.43-.27 1.099 1.099 0 0 0-.714-.053 3.49 3.49 0 0 0 .535-.392.029.029 0 0 1 .012-.006c.028-.005.065-.01.102-.013l.009.002a.508.508 0 0 0 .427.168c.182-.005.366-.056.546-.149.13-.068.266-.147.377-.265a.932.932 0 0 0 .065-.082l.002-.003.026-.034a.029.029 0 0 0 .006-.023.03.03 0 0 0-.014-.02 1.252 1.252 0 0 0-.94-.076.904.904 0 0 0-.258.133c.153-.177.294-.371.423-.58l.006-.01a1.01 1.01 0 0 1 .034-.02c.02-.012.042-.025.062-.04.017-.012.021-.012.038-.001a.26.26 0 0 0 .077.03.641.641 0 0 0 .446-.057 1.19 1.19 0 0 0 .357-.282c.144-.155.238-.294.296-.44a.882.882 0 0 0 .042-.136.028.028 0 0 0-.018-.035h-.012c-.058 0-.584.008-.89.306a1.588 1.588 0 0 0-.182.209c.121-.257.224-.528.307-.81l.002-.004.003-.01.08-.11c.003-.004.004-.004.009-.004h.007l.017.001c.06.004.095.003.124-.001a.558.558 0 0 0 .315-.176 1.93 1.93 0 0 0 .482-.895c.01-.04.014-.08.017-.122a1.64 1.64 0 0 1 .005-.059.032.032 0 0 0-.01-.025z"/><path d="M11.398 12.71a.543.543 0 0 1-.627.008c-1.04.23-1.621.307-1.742.23-.128-.083-.175-.176-.142-.28.128-.491.236-.814.324-.968.087-.154.213-.211.378-.173l1.033.437a.545.545 0 0 1 .923.018l1.076-.455c.164-.038.29.02.378.173.088.154.195.477.323.969.034.103-.013.196-.142.279-.121.078-.716-.002-1.782-.239z"/><path d="M9.187 11.821a3.33 3.33 0 0 1-.58-.187.03.03 0 0 1-.01-.014.56.56 0 0 1-.02-.209 1.23 1.23 0 0 0-.686-1.174l-.01-.004a.029.029 0 0 0-.028.004.028.028 0 0 0-.01.027l.01.071.03.186.003.016c.027.175.055.356.109.53a.814.814 0 0 0 .23.376 3.322 3.322 0 0 1-.617-.469.041.041 0 0 1-.01-.022l-.005-.124c0-.004 0-.016.003-.022.092-.215.116-.458.072-.741a1.498 1.498 0 0 0-.347-.747c-.022-.026-.041-.04-.058-.04-.004 0-.007.002-.01.003a.029.029 0 0 0-.016.022l-.005.044a15.864 15.864 0 0 1-.03.262v.008c-.016.139-.033.282-.041.426-.01.167-.008.363.092.544l.001.003a4.307 4.307 0 0 1-.376-.554c-.01-.017-.01-.033-.009-.055a.503.503 0 0 1 .098-.239 1.18 1.18 0 0 0 .175-.509c.044-.306 0-.613-.134-.913l-.012-.025-.01-.02a.029.029 0 0 0-.052.003l-.095.237-.02.05a3.57 3.57 0 0 0-.183.56.98.98 0 0 0-.006.406 5.077 5.077 0 0 1-.254-.775c0-.003 0-.01.006-.028a.477.477 0 0 1 .156-.213 1.06 1.06 0 0 0 .306-.426 1.618 1.618 0 0 0 .108-.972l-.001-.003a.029.029 0 0 0-.017-.018.03.03 0 0 0-.022 0 .04.04 0 0 0-.021.014l-.101.134-.006.008c-.085.113-.174.23-.258.347a1.448 1.448 0 0 0-.213.4.917.917 0 0 0-.042.189 5.917 5.917 0 0 1-.048-.667c0-.054.006-.096.043-.143a.267.267 0 0 1 .125-.096c.206-.075.338-.234.43-.363a1.535 1.535 0 0 0 .273-.84V6.07l.004-.049a.029.029 0 0 0-.047-.024l-.025.021-.025.021-.118.094-.004.003c-.086.069-.176.14-.261.213a1.117 1.117 0 0 0-.364.521 5.77 5.77 0 0 1 .127-.75c.007-.03.01-.04.025-.044a.055.055 0 0 0 .024-.017c.042-.048.098-.055.152-.056.18-.004.322-.094.437-.181.284-.213.48-.755.48-.773a.029.029 0 0 0-.04-.026l-.18.075a8.057 8.057 0 0 0-.407.176.81.81 0 0 0-.317.253c.072-.205.156-.407.25-.6.011-.021.062-.044.135-.044a.29.29 0 0 1 .066.008.75.75 0 0 0 .528-.078c.193-.096.352-.253.488-.48a.235.235 0 0 0 .01-.025.028.028 0 0 0-.004-.027.03.03 0 0 0-.024-.011l-.068.004-.123.007-.043.002c-.128.007-.261.014-.392.045a.705.705 0 0 0-.34.171c.098-.164.204-.32.316-.467.003-.004.017-.01.03-.012a.256.256 0 0 1 .055-.006.21.21 0 0 1 .099.023.757.757 0 0 0 .596.019.975.975 0 0 0 .473-.363.024.024 0 0 0 .001-.023c-.01-.022-.054-.032-.073-.035a3.972 3.972 0 0 0-.15-.024 8.945 8.945 0 0 1-.07-.01h-.003a2.451 2.451 0 0 0-.247-.03.68.68 0 0 0-.399.093c.075-.08.15-.154.228-.225.025-.022.052-.045.09-.073a.04.04 0 0 1 .02-.006c.267-.01.49-.128.68-.36.103-.126.183-.285.243-.487l.002-.007c.006-.021.01-.033-.005-.046-.011-.01-.031-.008-.083.013l-.144.053c-.097.037-.199.074-.296.116a.873.873 0 0 0-.387.32.476.476 0 0 0-.088.333 4.56 4.56 0 0 0-.5.509c.111-.17.184-.366.22-.594a1.906 1.906 0 0 0 0-.662l-.006-.023a.029.029 0 0 0-.02-.02.03.03 0 0 0-.028.006 2.153 2.153 0 0 1-.034.032l-.008.007a1.648 1.648 0 0 0-.503.94.72.72 0 0 0 .028.369.503.503 0 0 0 .054.098c.01.014.02.028.028.043l.007.013-.017.145-.005.006-.003.004c-.13.18-.25.37-.357.567.042-.147.076-.333.074-.549a1.452 1.452 0 0 0-.183-.706.031.031 0 0 0-.025-.015.028.028 0 0 0-.023.012 1.57 1.57 0 0 0-.213.485c-.062.234-.09.428-.09.613 0 .157.03.278.09.38.02.032.043.06.067.087l.038.046a.056.056 0 0 1 .012.028c.002.038.001.075 0 .112v.025a.04.04 0 0 1-.003.013 5.592 5.592 0 0 0-.201.577c.008-.067.013-.133.014-.196a1.43 1.43 0 0 0-.33-.96l-.047-.058a.028.028 0 0 0-.022-.01h-.005a.029.029 0 0 0-.022.018 2.44 2.44 0 0 1-.034.092 1.854 1.854 0 0 0-.077.537v.004c-.004.16-.01.38.057.59.064.206.179.31.2.329l.003.002c.06.054.1.103.108.135a.848.848 0 0 0 .01.038c.018.057.007.111-.005.17a.7.7 0 0 0-.014.09A27.57 27.57 0 0 1 6.133 7l-.001.012-.008.094a1.535 1.535 0 0 0-.661-1.137.029.029 0 0 0-.043.022 2.367 2.367 0 0 1-.007.052c-.004.037-.008.071-.008.107a2.25 2.25 0 0 0 .232 1.026c.043.087.1.162.17.224a.44.44 0 0 0 .228.11l.007.003.014.027a.494.494 0 0 1 .043.1.35.35 0 0 1 .008.093v.036c.008.285.019.385.064.64a1.448 1.448 0 0 0-.82-.839c-.017-.008-.036-.013-.058-.02l-.005-.001a2.514 2.514 0 0 1-.028-.008.029.029 0 0 0-.037.03l.005.059a.678.678 0 0 0 .016.121c.096.368.253.66.483.896.097.1.2.157.315.175a.58.58 0 0 0 .124.002l.017-.001h.007c.005 0 .005 0 .009.004l.08.11a.055.055 0 0 1 .003.01l.001.004c.083.281.186.552.308.81a1.586 1.586 0 0 0-.181-.21c-.308-.297-.833-.306-.892-.306h-.007l-.005.001a.028.028 0 0 0-.017.035l.012.044c.008.03.017.062.03.092.057.145.152.285.296.44.1.106.211.214.357.282a.64.64 0 0 0 .446.056.26.26 0 0 0 .076-.03c.017-.01.022-.01.039.002a.668.668 0 0 0 .095.06 4.483 4.483 0 0 0 .43.59.904.904 0 0 0-.258-.132 1.251 1.251 0 0 0-.942.076.029.029 0 0 0-.007.041l.026.035.002.002c.02.027.041.056.066.083.11.118.246.197.377.265a1.273 1.273 0 0 0 .572.15c.168 0 .3-.056.4-.169a.02.02 0 0 1 .008-.002.797.797 0 0 1 .103.013c.004 0 .01.003.013.006.169.15.348.28.535.392a1.099 1.099 0 0 0-.715.053c-.151.06-.291.148-.43.27a.028.028 0 0 0-.003.04.437.437 0 0 0 .168.122 1.5 1.5 0 0 0 .469.123 1.554 1.554 0 0 0 .3-.003c.047-.005.094-.013.139-.023.207-.05.347-.154.428-.315a.042.042 0 0 1 .015-.007.945.945 0 0 1 .103-.02.057.057 0 0 1 .029.006 3.293 3.293 0 0 0 .456.137.03.03 0 0 0 .025-.015.459.459 0 0 1 .054-.079.028.028 0 0 0-.016-.046z"/></g><path d="M12.984 5.12a2.938 2.938 0 0 0-.268-.198m-3.383 0a2.937 2.937 0 0 0-.098.074 2.381 2.381 0 0 0 1.826 3.91 2.381 2.381 0 0 0 1.923-3.786c.63.524.98 1.278.98 2.182 0 1.618-1.31 2.93-2.925 2.93a2.928 2.928 0 0 1-2.926-2.93c0-.936.44-1.77 1.122-2.306" fill="#FFF"/></svg><svg width="22" height="15" viewBox="0 0 22 15" id="flags--flag-br" x="120"><g fill="none"><path fill="#4C8056" d="M17.069 14.981h4.172a.753.753 0 0 0 .759-.748V.767a.753.753 0 0 0-.759-.748H.76A.753.753 0 0 0 0 .767v13.466c0 .413.34.748.759.748h16.31z"/><path fill="#F3D55B" d="M3.414 7.126L11 11.989l7.586-4.863L11 2.263z"/><path fill="#3B97D3" d="M13.655 7.126a2.542 2.542 0 0 1-.5 1.526A2.652 2.652 0 0 1 11 9.744a2.68 2.68 0 0 1-1.88-.766 2.598 2.598 0 0 1-.776-1.852c0-.02 0-.04.004-.06.002-.3.062-.597.174-.875a2.66 2.66 0 0 1 2.961-1.64 2.627 2.627 0 0 1 2.171 2.575z"/><path fill="#ECF0F1" d="M13.154 8.652a2.527 2.527 0 0 1-.64.625l-.038-.21a2.808 2.808 0 0 0-1.455-1.981 2.88 2.88 0 0 0-2.479-.102l-.193.082c.003-.3.062-.596.174-.875.37-.126.758-.189 1.15-.187 1.637-.005 3.07 1.085 3.481 2.648z"/></g></svg><svg width="22" height="15" viewBox="0 0 22 15" id="flags--flag-de" x="120" y="75"><g fill="none"><path fill="#2C2F38" d="M17.069 15h4.172a.754.754 0 0 0 .759-.75V.75c0-.414-.34-.75-.759-.75H.76A.754.754 0 0 0 0 .75v13.5c0 .414.34.75.759.75h16.31z"/><path fill="#F0C419" d="M22 10v4.23a.766.766 0 0 1-.759.77H.76a.766.766 0 0 1-.76-.77V10h22z"/><path fill="#C03A2B" d="M0 5h22v5H0z"/></g></svg><svg width="22" height="15" viewBox="0 0 22 15" id="flags--flag-en" x="120" y="90"><g fill="none"><path fill="#E6E7E8" d="M22 13.485v.748a.756.756 0 0 1-.759.748H.76a.756.756 0 0 1-.76-.748v-.748h22z"/><path fill="#C03A2B" d="M22 .767v12.718H0V.767A.756.756 0 0 1 .759.02H21.24a.756.756 0 0 1 .76.747z"/><path fill="#285680" d="M.759.019h9.862V7.5H0V.767C0 .354.34.02.759.02z"/><path fill="#E6E7E8" d="M10.621 1.515H22v1.496H10.621zm0 2.993H22v1.496H10.621zM0 7.5h22v1.496H0zm13.777 4.489H22v-1.497H0v1.497h8.223"/><path fill="#ECF0F1" d="M.759.393l.176.351.393.057-.285.273.067.386-.351-.182-.352.182.067-.386L.19.801.583.744zm1.517 0l.176.351.393.057-.285.273.067.386-.351-.182-.352.182.067-.386-.284-.273L2.1.744zm1.517 0l.176.351.393.057-.284.273.067.386-.352-.182-.352.182.068-.386-.285-.273.393-.057zm1.517 0l.176.351.393.057-.284.273.067.386-.352-.182-.351.182.067-.386L4.74.801l.393-.057zm1.518 0l.176.351.393.057-.285.273.067.386-.351-.182-.352.182.067-.386L6.26.801l.393-.057zm1.517 0l.176.351.393.057-.285.273.067.386-.351-.182-.352.182.067-.386-.284-.273.393-.057zm1.517 0l.176.351.393.057-.284.273.067.386-.352-.182-.352.182.068-.386-.285-.273.393-.057zM1.612 1.81l.176.35.393.057-.284.274.067.386-.352-.183-.352.183.068-.386-.285-.274.393-.056zm1.518 0l.175.35.393.057-.284.274.067.386-.352-.183-.351.183.067-.386-.285-.274.393-.056zm1.517 0l.176.35.393.057-.285.274.067.386-.351-.183-.352.183.067-.386-.284-.274.393-.056zm1.517 0l.176.35.393.057-.285.274.067.386-.351-.183-.352.183.067-.386-.284-.274.393-.056zm1.517 0l.176.35.393.057-.284.274.067.386-.352-.183-.352.183.068-.386-.285-.274.393-.056zm1.517 0l.176.35.393.057-.284.274.067.386-.352-.183-.351.183.067-.386-.285-.274.393-.056zM.759 3.226l.176.351.393.056-.285.274.067.386-.351-.182-.352.182.067-.386-.284-.274.393-.056zm1.517 0l.176.351.393.056-.285.274.067.386-.351-.182-.352.182.067-.386-.284-.274.393-.056zm1.517 0l.176.351.393.056-.284.274.067.386-.352-.182-.352.182.068-.386-.285-.274.393-.056zm1.517 0l.176.351.393.056-.284.274.067.386-.352-.182-.351.182.067-.386-.285-.274.393-.056zm1.518 0l.176.351.393.056-.285.274.067.386-.351-.182-.352.182.067-.386-.284-.274.393-.056zm1.517 0l.176.351.393.056-.285.274.067.386-.351-.182-.352.182.067-.386-.284-.274.393-.056zm1.517 0l.176.351.393.056-.284.274.067.386-.352-.182-.352.182.068-.386-.285-.274.393-.056zM.759 6.059l.176.351.393.056-.285.274.067.386-.351-.182-.352.182.067-.386-.284-.274.393-.056zm1.517 0l.176.351.393.056-.285.274.067.386-.351-.182-.352.182.067-.386-.284-.274.393-.056zm1.517 0l.176.351.393.056-.284.274.067.386-.352-.182-.352.182.068-.386-.285-.274.393-.056zm1.517 0l.176.351.393.056-.284.274.067.386-.352-.182-.351.182.067-.386-.285-.274.393-.056zm1.518 0l.176.351.393.056-.285.274.067.386-.351-.182-.352.182.067-.386-.284-.274.393-.056zm1.517 0l.176.351.393.056-.285.274.067.386-.351-.182-.352.182.067-.386-.284-.274.393-.056zm1.517 0l.176.351.393.056-.284.274.067.386-.352-.182-.352.182.068-.386-.285-.274.393-.056zm-8.25-1.417l.176.351.393.057-.284.273.067.386-.352-.182-.352.182.068-.386-.285-.273.393-.057zm1.518 0l.175.351.393.057-.284.273.067.386-.352-.182-.351.182.067-.386-.285-.273.393-.057zm1.517 0l.176.351.393.057-.285.273.067.386-.351-.182-.352.182.067-.386-.284-.273.393-.057zm1.517 0l.176.351.393.057-.285.273.067.386-.351-.182-.352.182.067-.386-.284-.273.393-.057zm1.517 0l.176.351.393.057-.284.273.067.386-.352-.182-.352.182.068-.386-.285-.273.393-.057zm1.517 0l.176.351.393.057-.284.273.067.386-.352-.182-.351.182.067-.386-.285-.273.393-.057z"/></g></svg><svg width="22" height="15" viewBox="0 0 22 15" id="flags--flag-es" y="109"><g fill="none"><path fill="#C03A2B" d="M17.069 14.981h4.172a.753.753 0 0 0 .759-.748V.767a.753.753 0 0 0-.759-.748H.76A.753.753 0 0 0 0 .767v13.466c0 .413.34.748.759.748h16.31z"/><path fill="#F0C419" d="M14.812 12.363H22V2.637H0v9.726h7.188z"/><path fill="#FFF" d="M5.31 6.752h1.517v1.496H5.31z"/><path fill="#D75E72" d="M3.793 6.752H5.31v1.496H3.793z"/><path fill="#F0C419" d="M6.828 8.248v.748c0 .298-.12.584-.333.794-.214.21-.503.329-.805.328h-.76c-.302 0-.591-.117-.805-.328a1.113 1.113 0 0 1-.333-.794v-.748h3.035z"/><path fill="#D75E72" d="M6.828 8.248v.748c0 .62-.255 1.122-.57 1.122H5.31v-1.87h1.518z"/><path fill="#F0C419" d="M5.31 6.004v.748H3.793a.378.378 0 0 1-.38-.374v-.374a.756.756 0 0 1 .76-.748h.379a.755.755 0 0 1 .758.748zm1.897 0v.374c0 .206-.17.373-.38.374H5.31v-.748a.755.755 0 0 1 .759-.748h.38a.756.756 0 0 1 .758.748z"/><path fill="#FFF" d="M2.655 10.492h-.758a.377.377 0 0 1-.38-.374c0-.206.17-.374.38-.374V6.752c0-.207.17-.374.379-.374.21 0 .38.167.38.374v2.992c.209 0 .379.168.379.374 0 .207-.17.374-.38.374zm6.069 0h-.758a.377.377 0 0 1-.38-.374c0-.206.17-.374.38-.374V6.752c0-.207.17-.374.379-.374.21 0 .38.167.38.374v2.992c.209 0 .378.168.378.374 0 .207-.17.374-.379.374z"/><path fill="#C03A2B" d="M6.448 4.882h-.38c-.129 0-.257.024-.378.069v-.443a.377.377 0 0 0-.38-.374.376.376 0 0 0-.379.374v.443a1.138 1.138 0 0 0-.38-.07h-.379a1.132 1.132 0 0 0-1.138 1.123v.374a.745.745 0 0 0 .38.644v1.974c0 .826.68 1.496 1.517 1.496h.759c.837 0 1.516-.67 1.517-1.496V7.022a.744.744 0 0 0 .38-.644v-.374a1.131 1.131 0 0 0-1.139-1.122zm-.38.748h.38c.21 0 .38.167.38.374v.374H5.69v-.374c0-.207.17-.374.379-.374zm.38 2.244H5.69v-.748h.758v.748zm-1.517 0h-.759v-.748h.759v.748zm-1.138-1.87c0-.207.17-.374.38-.374h.379c.21 0 .379.167.38.374v.374h-1.14v-.374zm.38 2.992v-.374h.758v1.122a.754.754 0 0 1-.759-.748zm1.517.748V8.622h.758v.374c0 .413-.34.748-.758.748z"/></g></svg><svg width="22" height="15" x="25" y="69" viewBox="0 0 22 15" id="flags--flag-fr"><g fill="none"><path fill="#285680" d="M17.069 14.981h4.172a.753.753 0 0 0 .759-.748V.767a.753.753 0 0 0-.759-.748H.76A.753.753 0 0 0 0 .767v13.466c0 .413.34.748.759.748h16.31z"/><path fill="#C03A2B" d="M22 .767v13.466a.756.756 0 0 1-.759.748h-6.069V.019h6.07A.756.756 0 0 1 22 .767z"/><path fill="#E6E7E8" d="M6.828.019h8.345v14.962H6.828z"/></g></svg><svg width="22" height="15" x="47" y="69" viewBox="0 0 22 15" id="flags--flag-it"><g fill="none"><path fill="#C03A2B" d="M17.069 14.981h4.172a.753.753 0 0 0 .759-.748V.767a.753.753 0 0 0-.759-.748H.76A.753.753 0 0 0 0 .767v13.466c0 .413.34.748.759.748h16.31z"/><path fill="#4C8056" d="M6.828.019v14.962H.758A.756.756 0 0 1 0 14.233V.767A.756.756 0 0 1 .759.02h6.069z"/><path fill="#E6E7E8" d="M6.828.019h8.345v14.962H6.828z"/></g></svg><svg width="22" height="15" x="69" y="69" viewBox="0 0 22 15" id="flags--flag-jp"><g fill="none"><path fill="#E6E7E8" d="M17.069 14.962h4.172a.753.753 0 0 0 .759-.748V.748A.753.753 0 0 0 21.241 0H.76A.753.753 0 0 0 0 .748v13.466c0 .413.34.748.759.748h16.31z"/><ellipse cx="11.172" cy="8.115" fill="#C03A2B" rx="4.172" ry="4.115"/></g></svg><svg width="22" height="15" viewBox="0 80 500 350" x="91" y="69" id="flags--flag-ko"><path d="M397.241 432.552h97.103c9.751 0 17.655-7.905 17.655-17.655V97.103c0-9.751-7.905-17.655-17.655-17.655H17.655C7.904 79.448 0 87.353 0 97.103v317.793c0 9.751 7.904 17.655 17.655 17.655h379.586z" fill="#e6e7e8"/><path d="M326.179 238.963c-4.277-38.131-38.104-65.947-76.343-62.777-38.239 3.17-67.024 36.176-64.964 74.491 2.06 38.315 34.217 68.044 72.576 67.096 38.359-.948 69.008-32.23 69.172-70.6.001-2.737-.176-5.474-.441-8.21z" fill="#c03a2b"/><path d="M326.621 247.172c0 39.003-31.618 70.621-70.621 70.621s-70.621-31.618-70.621-70.621l3.708-3.708a44.652 44.652 0 0 1 63.206 0l3.708 3.708a44.77 44.77 0 0 0 66.472-3.62l3.708-4.59c.263 2.737.44 5.474.44 8.21z" fill="#285680"/><path d="M60.698 190.879a8.827 8.827 0 0 1-7.53-13.422l27.569-45.224a8.828 8.828 0 0 1 12.125-2.929 8.829 8.829 0 0 1 2.953 12.119l-27.569 45.224a8.821 8.821 0 0 1-7.548 4.232zm22.612 13.785a8.827 8.827 0 0 1-7.53-13.422l27.569-45.224a8.828 8.828 0 0 1 12.125-2.929 8.829 8.829 0 0 1 2.953 12.119l-27.569 45.224a8.825 8.825 0 0 1-7.548 4.232zm22.612 13.784a8.827 8.827 0 0 1-7.53-13.422l27.569-45.224a8.828 8.828 0 0 1 12.125-2.929 8.829 8.829 0 0 1 2.953 12.119l-27.569 45.224a8.823 8.823 0 0 1-7.548 4.232zM88.285 384a8.821 8.821 0 0 1-7.548-4.233l-27.569-45.224a8.829 8.829 0 1 1 15.078-9.19l27.569 45.224A8.826 8.826 0 0 1 88.285 384zm22.612-13.784a8.821 8.821 0 0 1-7.548-4.233L75.78 320.759a8.829 8.829 0 0 1 15.077-9.19l27.569 45.224a8.826 8.826 0 0 1-7.529 13.423zm22.611-13.785a8.821 8.821 0 0 1-7.548-4.233l-27.569-45.224a8.829 8.829 0 1 1 15.078-9.19l27.569 45.224a8.826 8.826 0 0 1-7.53 13.423zm317.794-165.552a8.821 8.821 0 0 1-7.548-4.233l-27.569-45.224a8.829 8.829 0 1 1 15.078-9.19l27.569 45.224a8.826 8.826 0 0 1-7.53 13.423zm-22.612 13.785a8.821 8.821 0 0 1-7.548-4.233l-27.569-45.224a8.83 8.83 0 0 1 15.078-9.19l27.569 45.224a8.826 8.826 0 0 1-7.53 13.423zm-22.612 13.784a8.821 8.821 0 0 1-7.548-4.233l-27.569-45.224a8.83 8.83 0 0 1 15.078-9.19l27.569 45.224a8.826 8.826 0 0 1-7.53 13.423zM423.715 384a8.827 8.827 0 0 1-7.53-13.422l27.569-45.224a8.828 8.828 0 1 1 15.078 9.19l-27.569 45.224a8.823 8.823 0 0 1-7.548 4.232zm-22.612-13.784a8.827 8.827 0 0 1-7.53-13.422l27.569-45.224a8.829 8.829 0 1 1 15.077 9.19l-27.569 45.224a8.823 8.823 0 0 1-7.547 4.232zm-22.611-13.785a8.827 8.827 0 0 1-7.53-13.422l27.569-45.224a8.828 8.828 0 1 1 15.078 9.19l-27.569 45.224a8.824 8.824 0 0 1-7.548 4.232z" fill="#2c2f38"/></svg><svg width="22" height="15" viewBox="0 80 500 350" y="94" id="flags--flag-mx"><path fill="#d80027" d="M341.334 85.33H0v341.332h512V85.33z"/><path fill="#6da544" d="M0 85.333h170.663V426.67H0z"/><path fill="#f0f0f0" d="M170.663 85.333h170.663V426.67H170.663z"/><path d="M208 255.996c0 26.509 21.491 48 48 48s48-21.491 48-48v-16h-96v16z" fill="#6da544"/><path d="M320 223.996h-48c0-8.836-7.164-16-16-16s-16 7.164-16 16h-48c0 8.836 7.697 16 16.533 16H208c0 8.836 7.164 16 16 16 0 8.836 7.164 16 16 16h32c8.836 0 16-7.164 16-16 8.836 0 16-7.164 16-16h-.533c8.836 0 16.533-7.163 16.533-16z" fill="#ff9811"/></svg><svg width="22" height="15" viewBox="0 80 500 350" x="22" y="94" id="flags--flag-pl"><path d="M512 97.103V256H0V97.103c.028-9.739 7.916-17.627 17.655-17.655h476.69c9.739.029 17.627 7.916 17.655 17.655z" fill="#e6e7e8"/><path d="M512 256v158.897c-.029 9.739-7.916 17.627-17.655 17.655H17.655C7.916 432.523.029 424.635 0 414.897V256h512z" fill="#c03a2b"/></svg><svg width="22" height="15" viewBox="0 80 500 350" x="44" y="94" id="flags--flag-pt"><path fill="#d80027" d="M0 85.337h512v341.326H0z"/><path fill="#6da544" d="M196.641 85.337v341.326H0V85.337z"/><circle cx="196.641" cy="256" r="64" fill="#ffda44"/><path d="M160.638 224v40.001c0 19.882 16.118 36 36 36s36-16.118 36-36V224h-72z" fill="#d80027"/><path d="M196.638 276c-6.617 0-12-5.383-12-12v-16h24.001v16c-.001 6.616-5.385 12-12.001 12z" fill="#f0f0f0"/></svg><svg width="22" height="15" x="66" y="94" viewBox="0 0 22 15" id="flags--flag-ru"><g fill="none"><path fill="#E6E7E8" d="M17.069 14.981h4.172a.753.753 0 0 0 .759-.748V.767a.753.753 0 0 0-.759-.748H.76A.753.753 0 0 0 0 .767v13.466c0 .413.34.748.759.748h16.31z"/><path fill="#C03A2B" d="M22 10.118v4.115a.756.756 0 0 1-.759.748H.76a.756.756 0 0 1-.76-.748v-4.115h22z"/><path fill="#285680" d="M0 4.882h22v5.237H0z"/></g></svg><svg width="22" height="15" x="88" y="94" viewBox="0 0 22 15" id="flags--flag-sw"><g fill="none"><path fill="#285680" d="M17.069 14.981h4.172a.753.753 0 0 0 .759-.748V.767a.753.753 0 0 0-.759-.748H.76A.753.753 0 0 0 0 .767v13.466c0 .413.34.748.759.748h16.31z"/><path fill="#F0C419" d="M7.207 14.981V8.622H22V6.378H7.207V.019H4.93v6.359H0v2.244h4.931v6.359z"/></g></svg><svg width="22" height="15" viewBox="0 80 500 350" x="22" y="109" id="flags--flag-th"><path d="M512 97.103v35.31H0v-35.31c.028-9.739 7.916-17.627 17.655-17.655h476.69c9.739.029 17.627 7.917 17.655 17.655zm0 282.483v35.31c-.029 9.739-7.916 17.627-17.655 17.655H17.655C7.916 432.523.029 424.635 0 414.897v-35.31h512z" fill="#c03a2b"/><path fill="#e6e7e8" d="M0 132.414h512v247.172H0z"/><path fill="#285680" d="M0 194.207h512v123.586H0z"/></svg><svg width="22" height="15" viewBox="0 80 500 350" x="120" y="15" id="flags--flag-tr"><path d="M397.241 432.552h97.103c9.751 0 17.655-7.905 17.655-17.655V97.103c0-9.751-7.905-17.655-17.655-17.655H17.655C7.904 79.448 0 87.353 0 97.103v317.793c0 9.751 7.904 17.655 17.655 17.655h379.586z" fill="#c03a2b"/><path fill="#fff" d="M337.814 222.199l24.541 8.325 20.771-15.502-.327 25.918 21.151 14.963-24.743 7.689-7.689 24.752-14.963-21.159-25.918.326 15.501-20.771zm-72.986 113.249a79.291 79.291 0 0 0 55.614-22.775c-25.725 45.296-78.733 67.584-129.097 54.28-50.364-13.304-85.45-58.861-85.45-110.953s35.086-97.649 85.45-110.953 103.371 8.984 129.097 54.28c-25.595-25.116-64.844-29.969-95.785-11.841s-45.898 54.738-36.503 89.345 40.814 58.626 76.674 58.617z"/></svg><svg width="22" height="15" viewBox="0 80 500 350" x="120" y="30" id="flags--flag-vi"><path d="M397.241 432.552h97.103c9.751 0 17.655-7.905 17.655-17.655V97.103c0-9.751-7.905-17.655-17.655-17.655H17.655C7.904 79.448 0 87.353 0 97.103v317.793c0 9.751 7.904 17.655 17.655 17.655h379.586z" fill="#c03a2b"/><path fill="#f3d55b" d="M256 158.897l31.55 63.929 70.55 10.249-51.05 49.761 12.05 70.267-63.1-33.174-63.1 33.174 12.05-70.267-51.05-49.761 70.55-10.249z"/></svg><svg width="22" height="15" x="120" y="45" viewBox="0 0 22 15" id="flags--flag-zh"><g fill="none"><path fill="#C03A2B" d="M17.069 14.981h4.172a.753.753 0 0 0 .759-.748V.767a.753.753 0 0 0-.759-.748H.76A.753.753 0 0 0 0 .767v13.466c0 .413.34.748.759.748h16.31z"/><path fill="#F3D55B" d="M3.682 2.637l.668 1.337 1.496.214-1.082 1.04.255 1.469-1.337-.694-1.338.694.255-1.469-1.082-1.04 1.496-.214zM6.631 1.36l.528.177.446-.329-.007.55.455.316-.532.164-.165.524-.322-.449-.557.008.333-.44zm0 6.609l.528.176.446-.329-.007.55.455.317-.532.163-.165.524-.322-.448-.557.007.333-.44zM8.5 3.48l.526.176.447-.328-.007.549.454.317-.531.163-.166.525-.321-.449-.557.007.333-.44zm0 2.676l.526.176.447-.328-.007.549.454.317-.531.163-.166.525-.321-.449-.557.007.333-.44z"/></g></svg><svg width="25" height="25" x="75" y="29" viewBox="0 0 25 25" id="icons--icon-checkbox-checked"><g fill="none"><rect width="24" height="24" x=".5" y=".5" fill="#4A90E2" stroke="#4A90E2" rx="4"/><path fill="#FFF" d="M10.877 14.99L17.867 8l1.202 1.202-8.209 8.209-1.202-1.202.016-.017L6.481 13l1.203-1.202 3.193 3.193z"/></g></svg><svg width="25" height="25" y="69" viewBox="0 0 25 25" id="icons--icon-checkbox-unchecked"><rect width="24" height="24" x=".5" y=".5" fill="none" stroke="#E2E7ED" rx="4"/></svg><svg width="16" height="16" y="124" viewBox="0 0 16 16" id="icons--icon-close"><path fill="#344861" fill-rule="evenodd" d="M6.893 8L.376 1.482 1.482.376 8 6.893 14.518.376l1.106 1.106L9.107 8l6.517 6.518-1.106 1.106L8 9.107l-6.518 6.517-1.106-1.106L6.893 8z"/></svg><svg width="9" height="6" x="75" y="54" viewBox="0 0 9 6" id="icons--icon-dropdown" xmlns="http://www.w3.org/2000/svg"><path fill="#94A3B7" fill-rule="evenodd" d="M4.498 3.469L7.754.214a.73.73 0 1 1 1.032 1.032L5.15 4.883a.731.731 0 0 1-.718.362.727.727 0 0 1-.573-.35L.214 1.249A.73.73 0 1 1 1.246.217l3.252 3.252z"/></svg><svg width="35" height="35" x="40" y="29" viewBox="0 0 35 35" id="icons--icon-facebook" xmlns="http://www.w3.org/2000/svg"><g fill="none" fill-rule="evenodd"><rect width="35" height="35" fill="#556FC6" rx="17.5"/><path fill="#FFF" fill-rule="nonzero" d="M13.284 18.618h1.934v7.303c0 .144.127.26.284.26h3.279c.157 0 .284-.116.284-.26v-7.268h2.223c.144 0 .266-.1.282-.231l.338-2.689a.247.247 0 0 0-.07-.203.296.296 0 0 0-.212-.088h-2.56v-1.685c0-.508.297-.765.886-.765h1.674c.157 0 .284-.117.284-.261v-2.468c0-.144-.127-.261-.284-.261h-2.307L19.213 10c-.4 0-1.792.072-2.89 1-1.219 1.028-1.05 2.258-1.009 2.472v1.97h-2.03c-.157 0-.284.117-.284.261v2.654c0 .145.127.261.284.261z"/></g></svg><svg width="20" height="12" x="100" y="29" viewBox="0 0 20 12" id="icons--icon-menu"><path fill="#344861" fill-rule="evenodd" d="M0 0h20v1.565H0V0zm0 5.217h20v1.566H0V5.217zm0 5.218h20V12H0v-1.565z"/></svg><svg width="40" height="40" y="29" viewBox="0 0 40 40" id="icons--icon-paginator-nav" xmlns="http://www.w3.org/2000/svg"><g fill="none" fill-rule="evenodd"><circle cx="20" cy="20" r="20" fill="#FFF"/><path fill="#6E7C8C" d="M22.388 21.546l-5.186 5.186L16 25.53l5.186-5.186-5.143-5.142L17.245 14l6.364 6.364-1.202 1.202-.02-.02z"/></g></svg><svg width="8" height="13" x="100" y="41" viewBox="0 0 8 13" id="icons--icon-post-nav" xmlns="http://www.w3.org/2000/svg"><path fill="#4A90E2" fill-rule="evenodd" d="M.294 6.373l6.364 6.364L8 11.395l-5.03-5.03 5.022-5.023L6.65 0 .286 6.364l.009.008z"/></svg><svg width="12" height="12" x="108" y="41" viewBox="0 0 12 12" id="icons--icon-star" xmlns="http://www.w3.org/2000/svg"><g fill="none" fill-rule="evenodd"><path d="M-984-157H216v2196H-984z"/><path fill="#F19A37" d="M3.688 7.329L-.034 4.773l4.504.054L5.978 0l1.618 4.865 4.427.053-3.553 2.36 1.59 4.425-.244-.167.078.236.014.04-3.93-2.795L2.228 12l1.46-4.671z"/></g></svg><svg width="12" height="12" x="44" y="109" viewBox="0 0 12 12" id="icons--icon-star-half"><g fill="none" fill-rule="evenodd"><path fill="#CCD5E1" d="M3.688 7.329L-.034 4.773l4.504.054L5.978 0l1.618 4.865 4.427.053-3.553 2.36 1.59 4.425-.244-.167.078.236.014.04-3.93-2.795L2.228 12l1.46-4.671z"/><path fill="#F19A37" d="M2.21 12l1.461-4.671-3.744-2.56 4.518.055L5.96 0v9.017z"/></g></svg><svg width="120" height="29" viewBox="0 0 120 29" id="icons--logo-easybrain" xmlns="http://www.w3.org/2000/svg"><g fill="none" fill-rule="evenodd"><path fill="#FFF" d="M13.204 22.539H.246V1.072h12.958v1.844H2.269v7.721h10.384v1.815H2.269v8.242h10.935v1.845m2.349-4.464c0-2.737 2.053-4.328 5.891-4.596l4.924-.328v-1.368c0-2.336-1.472-3.69-4.06-3.69-2.232 0-3.794 1.146-4.151 3.05h-1.89c.164-2.812 2.693-4.805 6.055-4.805 3.675 0 6.01 2.053 6.01 5.281v10.92h-1.874v-3.065h-.045c-.863 1.949-3.035 3.243-5.49 3.243-3.198 0-5.37-1.874-5.37-4.642zm10.815-1.562v-1.77l-4.685.327c-2.693.18-4.122 1.22-4.122 3.02 0 1.726 1.518 2.901 3.75 2.901 2.87 0 5.057-1.948 5.057-4.478zM36.873 6.338c3.243 0 5.594 1.934 5.757 4.686h-1.89c-.193-1.815-1.665-3.02-3.927-3.02-2.142 0-3.749 1.1-3.749 2.723 0 1.309.952 2.067 2.99 2.573l2.455.595c3.214.803 4.434 1.964 4.434 4.24 0 2.708-2.574 4.582-6.174 4.582-3.437 0-5.906-1.963-6.13-4.686h1.994c.238 1.83 1.83 3.035 4.255 3.035 2.395 0 4.061-1.101 4.061-2.797 0-1.354-.818-2.098-2.99-2.633l-2.708-.684c-2.767-.7-4.135-2.009-4.135-4.121 0-2.648 2.454-4.493 5.757-4.493m8.689 21.66v-1.68c.253.059.64.103.967.103 1.458 0 2.261-.758 2.975-2.782l.358-.996-6.026-16.127h2.113l4.909 14.03h.045l4.924-14.03h2.082l-6.248 16.796c-1.398 3.764-2.514 4.805-5.117 4.805a4.82 4.82 0 0 1-.982-.119M62 19.147h-.045v3.392h-1.874V.134h1.963v9.67h.045c.923-2.157 2.975-3.466 5.505-3.466 4.016 0 6.769 3.288 6.769 8.182 0 4.91-2.753 8.197-6.8 8.197-2.558 0-4.61-1.324-5.563-3.57zm.03-4.612c0 3.778 2.127 6.412 5.192 6.412 3.08 0 5.132-2.56 5.132-6.427 0-3.853-2.053-6.427-5.117-6.427-3.08 0-5.208 2.649-5.208 6.442zm14.729-8.019h1.844v2.842h.06c.55-1.904 2.068-3.02 4.062-3.02.416 0 .936.089 1.19.163v1.964c-.254-.119-.908-.238-1.459-.238-2.276 0-3.734 1.785-3.734 4.374v9.938H76.76V6.516m8.078 11.559c0-2.737 2.053-4.328 5.892-4.596l4.924-.328v-1.368c0-2.336-1.473-3.69-4.062-3.69-2.231 0-3.793 1.146-4.15 3.05h-1.89c.164-2.812 2.693-4.805 6.055-4.805 3.675 0 6.01 2.053 6.01 5.281v10.92h-1.874v-3.065h-.045c-.863 1.949-3.035 3.243-5.49 3.243-3.198 0-5.37-1.874-5.37-4.642zm10.816-1.562v-1.77l-4.687.327c-2.692.18-4.12 1.22-4.12 3.02 0 1.726 1.517 2.901 3.749 2.901 2.87 0 5.058-1.948 5.058-4.478zm5.563 6.026h1.963V6.516h-1.963zm5.653-16.023h1.844v2.99h.06c.892-1.993 2.796-3.168 5.385-3.168 3.526 0 5.787 2.261 5.787 5.891v10.31h-1.964v-9.997c0-2.827-1.651-4.449-4.373-4.449-2.856 0-4.776 2.038-4.776 5.029v9.417h-1.963V6.516"/><path fill="#B2FF59" d="M100.799 3.749a1.87 1.87 0 1 0 2.644-2.644A1.87 1.87 0 0 0 100.8 3.75"/></g></svg></svg>